# xmcd
#
# Track frame offsets:
#	150
#	12330
#	30842
#	47255
#	64092
#	76062
#	90560
#	106092
#	118310
#	133227
#	150045
#	165427
#	180565
#	195455
#	212952
#	227710
#	242922
#	258777
#	271900
#	283300
#	296947
#
# Disc length: 4127 seconds
#
# Revision: 3
# Processed by: cddbd v1.4PL0 Copyright (c) Steve Scherf et al.
# Submitted via: MusicWizard 6.0.2
#
DISCID=17101d15
DTITLE=Frank Sinatra - The Complete Reprise Studio Recordings  Disc 3
DYEAR=1995
DGENRE=Vocal
TTITLE0=Misty
TTITLE1=Come Rain Or Come Shine
TTITLE2=Night And Day
TTITLE3=All Or Nothing At All
TTITLE4=Pocketful Of Miracles
TTITLE5=Name It And It's Yours
TTITLE6=The Song Is Ended
TTITLE7=All Allone
TTITLE8=Charmaine
TTITLE9=When I Lost You
TTITLE10=Remember
TTITLE11=Together
TTITLE12=The Girl Next Door
TTITLE13=Indiscreet
TTITLE14=What'll I Do ?
TTITLE15=Oh, How I Miss You Tonight
TTITLE16=Are You Lonesome Tonight ?
TTITLE17=Come Waltz With Me
TTITLE18=Everybody's Twistin'
TTITLE19=Nothing But The Best
TTITLE20=The Boys' Night Out
EXTD=YEAR: 1995
EXTT0=
EXTT1=
EXTT2=
EXTT3=
EXTT4=
EXTT5=
EXTT6=
EXTT7=
EXTT8=
EXTT9=
EXTT10=
EXTT11=
EXTT12=
EXTT13=
EXTT14=
EXTT15=
EXTT16=
EXTT17=
EXTT18=
EXTT19=
EXTT20=
PLAYORDER=
